<mxfile host="app.diagrams.net" modified="2023-01-13T01:47:29.381Z" agent="5.0 (Windows NT 10.0; Win64; x64) AppleWebKit/537.36 (KHTML, like Gecko) Chrome/109.0.0.0 Safari/537.36" etag="mpysKOU9QJsRlT1daOpU" version="20.8.4" type="github">
  <diagram id="C5RBs43oDa-KdzZeNtuy" name="Page-1">
    <mxGraphModel dx="1773" dy="1746" grid="1" gridSize="10" guides="1" tooltips="1" connect="1" arrows="1" fold="1" page="1" pageScale="1" pageWidth="827" pageHeight="1169" math="0" shadow="0">
      <root>
        <mxCell id="WIyWlLk6GJQsqaUBKTNV-0" />
        <mxCell id="WIyWlLk6GJQsqaUBKTNV-1" parent="WIyWlLk6GJQsqaUBKTNV-0" />
        <mxCell id="yKsZ2ul6wSMgrqFyh0IF-4" value="TABLES" style="swimlane;whiteSpace=wrap;html=1;" parent="WIyWlLk6GJQsqaUBKTNV-1" vertex="1">
          <mxGeometry x="170" y="170" width="200" height="210" as="geometry" />
        </mxCell>
        <mxCell id="yKsZ2ul6wSMgrqFyh0IF-5" value="table_id&lt;span style=&quot;white-space: pre;&quot;&gt; &lt;/span&gt;&lt;span style=&quot;white-space: pre;&quot;&gt; &lt;/span&gt;&lt;span style=&quot;white-space: pre;&quot;&gt; &lt;/span&gt;&lt;span style=&quot;white-space: pre;&quot;&gt; &lt;/span&gt;" style="text;html=1;strokeColor=none;fillColor=none;align=left;verticalAlign=middle;whiteSpace=wrap;rounded=0;" parent="yKsZ2ul6wSMgrqFyh0IF-4" vertex="1">
          <mxGeometry y="30" width="200" height="30" as="geometry" />
        </mxCell>
        <mxCell id="yKsZ2ul6wSMgrqFyh0IF-6" value="table_name&lt;span style=&quot;white-space: pre;&quot;&gt; &lt;/span&gt;=&amp;gt;&lt;span style=&quot;white-space: pre;&quot;&gt; &lt;/span&gt;&lt;span style=&quot;white-space: pre;&quot;&gt; &lt;/span&gt;unique" style="text;html=1;strokeColor=none;fillColor=none;align=left;verticalAlign=middle;whiteSpace=wrap;rounded=0;" parent="yKsZ2ul6wSMgrqFyh0IF-4" vertex="1">
          <mxGeometry y="60" width="200" height="30" as="geometry" />
        </mxCell>
        <mxCell id="yKsZ2ul6wSMgrqFyh0IF-7" value="table_alias" style="text;html=1;strokeColor=none;fillColor=none;align=left;verticalAlign=middle;whiteSpace=wrap;rounded=0;" parent="yKsZ2ul6wSMgrqFyh0IF-4" vertex="1">
          <mxGeometry y="90" width="200" height="30" as="geometry" />
        </mxCell>
        <mxCell id="yKsZ2ul6wSMgrqFyh0IF-8" value="create_on" style="text;html=1;strokeColor=none;fillColor=none;align=left;verticalAlign=middle;whiteSpace=wrap;rounded=0;" parent="yKsZ2ul6wSMgrqFyh0IF-4" vertex="1">
          <mxGeometry y="120" width="200" height="30" as="geometry" />
        </mxCell>
        <mxCell id="yKsZ2ul6wSMgrqFyh0IF-17" value="&lt;font style=&quot;font-size: 10px;&quot;&gt;Tên bảng do người dùng định nghĩa sẽ có format là ml_${name}&lt;br&gt;để phân biệt với các bảng thật của server&lt;/font&gt;" style="rounded=0;whiteSpace=wrap;html=1;" parent="WIyWlLk6GJQsqaUBKTNV-1" vertex="1">
          <mxGeometry x="170" y="330" width="200" height="50" as="geometry" />
        </mxCell>
        <mxCell id="yKsZ2ul6wSMgrqFyh0IF-18" value="&lt;span style=&quot;font-size: 12px;&quot;&gt;FIELDS&lt;/span&gt;" style="swimlane;whiteSpace=wrap;html=1;fontSize=10;" parent="WIyWlLk6GJQsqaUBKTNV-1" vertex="1">
          <mxGeometry x="480" y="170" width="200" height="250" as="geometry" />
        </mxCell>
        <mxCell id="yKsZ2ul6wSMgrqFyh0IF-19" value="&lt;font style=&quot;font-size: 12px;&quot;&gt;field_id&lt;/font&gt;" style="text;html=1;strokeColor=none;fillColor=none;align=left;verticalAlign=middle;whiteSpace=wrap;rounded=0;fontSize=10;" parent="yKsZ2ul6wSMgrqFyh0IF-18" vertex="1">
          <mxGeometry y="30" width="200" height="30" as="geometry" />
        </mxCell>
        <mxCell id="yKsZ2ul6wSMgrqFyh0IF-20" value="&lt;font style=&quot;font-size: 12px;&quot;&gt;table_id&lt;/font&gt;" style="text;html=1;strokeColor=none;fillColor=none;align=left;verticalAlign=middle;whiteSpace=wrap;rounded=0;fontSize=10;" parent="yKsZ2ul6wSMgrqFyh0IF-18" vertex="1">
          <mxGeometry y="60" width="200" height="30" as="geometry" />
        </mxCell>
        <mxCell id="yKsZ2ul6wSMgrqFyh0IF-21" value="&lt;font style=&quot;font-size: 12px;&quot;&gt;field_name&lt;/font&gt;" style="text;html=1;strokeColor=none;fillColor=none;align=left;verticalAlign=middle;whiteSpace=wrap;rounded=0;fontSize=10;" parent="yKsZ2ul6wSMgrqFyh0IF-18" vertex="1">
          <mxGeometry y="90" width="200" height="30" as="geometry" />
        </mxCell>
        <mxCell id="yKsZ2ul6wSMgrqFyh0IF-22" value="&lt;font style=&quot;font-size: 12px;&quot;&gt;field_alias&lt;/font&gt;" style="text;html=1;strokeColor=none;fillColor=none;align=left;verticalAlign=middle;whiteSpace=wrap;rounded=0;fontSize=10;" parent="yKsZ2ul6wSMgrqFyh0IF-18" vertex="1">
          <mxGeometry y="120" width="200" height="30" as="geometry" />
        </mxCell>
        <mxCell id="yKsZ2ul6wSMgrqFyh0IF-23" value="&lt;span style=&quot;font-size: 12px;&quot;&gt;field_props&lt;/span&gt;" style="text;html=1;strokeColor=none;fillColor=none;align=left;verticalAlign=middle;whiteSpace=wrap;rounded=0;fontSize=10;" parent="yKsZ2ul6wSMgrqFyh0IF-18" vertex="1">
          <mxGeometry y="150" width="200" height="30" as="geometry" />
        </mxCell>
        <mxCell id="yKsZ2ul6wSMgrqFyh0IF-42" value="field_data_type" style="text;html=1;strokeColor=none;fillColor=none;align=left;verticalAlign=middle;whiteSpace=wrap;rounded=0;fontSize=12;" parent="yKsZ2ul6wSMgrqFyh0IF-18" vertex="1">
          <mxGeometry y="180" width="200" height="30" as="geometry" />
        </mxCell>
        <mxCell id="yKsZ2ul6wSMgrqFyh0IF-43" value="default_value" style="text;html=1;strokeColor=none;fillColor=none;align=left;verticalAlign=middle;whiteSpace=wrap;rounded=0;fontSize=12;" parent="yKsZ2ul6wSMgrqFyh0IF-18" vertex="1">
          <mxGeometry y="210" width="200" height="30" as="geometry" />
        </mxCell>
        <mxCell id="yKsZ2ul6wSMgrqFyh0IF-29" style="edgeStyle=orthogonalEdgeStyle;rounded=0;orthogonalLoop=1;jettySize=auto;html=1;fontSize=10;" parent="WIyWlLk6GJQsqaUBKTNV-1" source="yKsZ2ul6wSMgrqFyh0IF-5" target="yKsZ2ul6wSMgrqFyh0IF-20" edge="1">
          <mxGeometry relative="1" as="geometry">
            <Array as="points">
              <mxPoint x="430" y="215" />
              <mxPoint x="430" y="245" />
            </Array>
          </mxGeometry>
        </mxCell>
        <mxCell id="yKsZ2ul6wSMgrqFyh0IF-30" value="KEYS" style="swimlane;whiteSpace=wrap;html=1;fontSize=12;" parent="WIyWlLk6GJQsqaUBKTNV-1" vertex="1">
          <mxGeometry x="170" y="430" width="200" height="200" as="geometry" />
        </mxCell>
        <mxCell id="yKsZ2ul6wSMgrqFyh0IF-31" value="key_id" style="text;html=1;strokeColor=none;fillColor=none;align=left;verticalAlign=middle;whiteSpace=wrap;rounded=0;fontSize=12;" parent="yKsZ2ul6wSMgrqFyh0IF-30" vertex="1">
          <mxGeometry y="30" width="200" height="30" as="geometry" />
        </mxCell>
        <mxCell id="yKsZ2ul6wSMgrqFyh0IF-33" value="field_id" style="text;html=1;strokeColor=none;fillColor=none;align=left;verticalAlign=middle;whiteSpace=wrap;rounded=0;fontSize=12;" parent="yKsZ2ul6wSMgrqFyh0IF-30" vertex="1">
          <mxGeometry y="60" width="200" height="30" as="geometry" />
        </mxCell>
        <mxCell id="yKsZ2ul6wSMgrqFyh0IF-34" value="key_type" style="text;html=1;strokeColor=none;fillColor=none;align=left;verticalAlign=middle;whiteSpace=wrap;rounded=0;fontSize=12;" parent="yKsZ2ul6wSMgrqFyh0IF-30" vertex="1">
          <mxGeometry y="90" width="200" height="30" as="geometry" />
        </mxCell>
        <mxCell id="yKsZ2ul6wSMgrqFyh0IF-35" value="key_references" style="text;html=1;strokeColor=none;fillColor=none;align=left;verticalAlign=middle;whiteSpace=wrap;rounded=0;fontSize=12;" parent="yKsZ2ul6wSMgrqFyh0IF-30" vertex="1">
          <mxGeometry y="125" width="200" height="30" as="geometry" />
        </mxCell>
        <mxCell id="yKsZ2ul6wSMgrqFyh0IF-36" value="key_on" style="text;html=1;strokeColor=none;fillColor=none;align=left;verticalAlign=middle;whiteSpace=wrap;rounded=0;fontSize=12;" parent="yKsZ2ul6wSMgrqFyh0IF-30" vertex="1">
          <mxGeometry y="155" width="200" height="30" as="geometry" />
        </mxCell>
        <mxCell id="yKsZ2ul6wSMgrqFyh0IF-38" style="edgeStyle=orthogonalEdgeStyle;rounded=0;orthogonalLoop=1;jettySize=auto;html=1;entryX=1;entryY=0.5;entryDx=0;entryDy=0;fontSize=12;" parent="WIyWlLk6GJQsqaUBKTNV-1" source="yKsZ2ul6wSMgrqFyh0IF-19" target="yKsZ2ul6wSMgrqFyh0IF-33" edge="1">
          <mxGeometry relative="1" as="geometry">
            <Array as="points">
              <mxPoint x="720" y="215" />
              <mxPoint x="720" y="505" />
            </Array>
          </mxGeometry>
        </mxCell>
        <mxCell id="yKsZ2ul6wSMgrqFyh0IF-39" value="" style="rounded=0;whiteSpace=wrap;html=1;fontSize=12;" parent="WIyWlLk6GJQsqaUBKTNV-1" vertex="1">
          <mxGeometry x="170" y="630" width="200" height="30" as="geometry" />
        </mxCell>
        <mxCell id="yKsZ2ul6wSMgrqFyh0IF-40" value="Trường có prefix là table_name tương ứng &lt;br&gt;ml_${table_name}_${field_name}&lt;br&gt;để đảm bảo tính độc nhất khi xử lý gộp API" style="rounded=0;whiteSpace=wrap;html=1;fontSize=10;" parent="WIyWlLk6GJQsqaUBKTNV-1" vertex="1">
          <mxGeometry x="480" y="420" width="200" height="40" as="geometry" />
        </mxCell>
        <mxCell id="a6kdlHemP9lZWiBOAB_l-1" value="PAGES" style="swimlane;whiteSpace=wrap;html=1;" vertex="1" parent="WIyWlLk6GJQsqaUBKTNV-1">
          <mxGeometry x="400" y="-400" width="190" height="130" as="geometry" />
        </mxCell>
        <mxCell id="a6kdlHemP9lZWiBOAB_l-2" value="page_id" style="text;html=1;strokeColor=none;fillColor=none;align=left;verticalAlign=middle;whiteSpace=wrap;rounded=0;" vertex="1" parent="a6kdlHemP9lZWiBOAB_l-1">
          <mxGeometry y="30" width="190" height="30" as="geometry" />
        </mxCell>
        <mxCell id="a6kdlHemP9lZWiBOAB_l-4" value="page_title" style="text;html=1;strokeColor=none;fillColor=none;align=left;verticalAlign=middle;whiteSpace=wrap;rounded=0;" vertex="1" parent="a6kdlHemP9lZWiBOAB_l-1">
          <mxGeometry y="60" width="190" height="30" as="geometry" />
        </mxCell>
        <mxCell id="a6kdlHemP9lZWiBOAB_l-5" value="page_url" style="text;html=1;strokeColor=none;fillColor=none;align=left;verticalAlign=middle;whiteSpace=wrap;rounded=0;" vertex="1" parent="a6kdlHemP9lZWiBOAB_l-1">
          <mxGeometry y="90" width="190" height="30" as="geometry" />
        </mxCell>
        <mxCell id="a6kdlHemP9lZWiBOAB_l-7" value="Thông tin trang" style="rounded=0;whiteSpace=wrap;html=1;" vertex="1" parent="WIyWlLk6GJQsqaUBKTNV-1">
          <mxGeometry x="400" y="-270" width="190" height="20" as="geometry" />
        </mxCell>
        <mxCell id="a6kdlHemP9lZWiBOAB_l-8" value="COMPONENTS" style="swimlane;whiteSpace=wrap;html=1;" vertex="1" parent="WIyWlLk6GJQsqaUBKTNV-1">
          <mxGeometry x="-60" y="-400" width="200" height="110" as="geometry" />
        </mxCell>
        <mxCell id="a6kdlHemP9lZWiBOAB_l-9" value="cpn_id" style="text;html=1;strokeColor=none;fillColor=none;align=left;verticalAlign=middle;whiteSpace=wrap;rounded=0;" vertex="1" parent="a6kdlHemP9lZWiBOAB_l-8">
          <mxGeometry y="30" width="60" height="30" as="geometry" />
        </mxCell>
        <mxCell id="a6kdlHemP9lZWiBOAB_l-10" value="cpn_name" style="text;html=1;strokeColor=none;fillColor=none;align=left;verticalAlign=middle;whiteSpace=wrap;rounded=0;" vertex="1" parent="a6kdlHemP9lZWiBOAB_l-8">
          <mxGeometry y="60" width="60" height="30" as="geometry" />
        </mxCell>
        <mxCell id="a6kdlHemP9lZWiBOAB_l-11" value="Những thành phần cơ bản được định nghĩa sẳn như nav-bar, footer,..." style="rounded=0;whiteSpace=wrap;html=1;" vertex="1" parent="WIyWlLk6GJQsqaUBKTNV-1">
          <mxGeometry x="-60" y="-290" width="200" height="40" as="geometry" />
        </mxCell>
        <mxCell id="a6kdlHemP9lZWiBOAB_l-12" value="COMPONENT_WIDGETS" style="swimlane;whiteSpace=wrap;html=1;" vertex="1" parent="WIyWlLk6GJQsqaUBKTNV-1">
          <mxGeometry x="-60" y="-200" width="200" height="160" as="geometry" />
        </mxCell>
        <mxCell id="a6kdlHemP9lZWiBOAB_l-13" value="cpn_id" style="text;html=1;strokeColor=none;fillColor=none;align=left;verticalAlign=middle;whiteSpace=wrap;rounded=0;" vertex="1" parent="a6kdlHemP9lZWiBOAB_l-12">
          <mxGeometry y="30" width="200" height="30" as="geometry" />
        </mxCell>
        <mxCell id="a6kdlHemP9lZWiBOAB_l-14" value="widget_id" style="text;html=1;strokeColor=none;fillColor=none;align=left;verticalAlign=middle;whiteSpace=wrap;rounded=0;" vertex="1" parent="a6kdlHemP9lZWiBOAB_l-12">
          <mxGeometry y="60" width="200" height="30" as="geometry" />
        </mxCell>
        <mxCell id="a6kdlHemP9lZWiBOAB_l-27" value="prev_widget_id" style="text;html=1;strokeColor=none;fillColor=none;align=left;verticalAlign=middle;whiteSpace=wrap;rounded=0;" vertex="1" parent="a6kdlHemP9lZWiBOAB_l-12">
          <mxGeometry y="90" width="200" height="30" as="geometry" />
        </mxCell>
        <mxCell id="a6kdlHemP9lZWiBOAB_l-28" value="Định vị widgets dựa vào widget liền trước chúng." style="rounded=0;whiteSpace=wrap;html=1;" vertex="1" parent="a6kdlHemP9lZWiBOAB_l-12">
          <mxGeometry y="130" width="200" height="30" as="geometry" />
        </mxCell>
        <mxCell id="a6kdlHemP9lZWiBOAB_l-16" value="WIDGETS" style="swimlane;whiteSpace=wrap;html=1;" vertex="1" parent="WIyWlLk6GJQsqaUBKTNV-1">
          <mxGeometry x="170" y="-200" width="200" height="160" as="geometry" />
        </mxCell>
        <mxCell id="a6kdlHemP9lZWiBOAB_l-17" value="widget_id" style="text;html=1;strokeColor=none;fillColor=none;align=left;verticalAlign=middle;whiteSpace=wrap;rounded=0;" vertex="1" parent="a6kdlHemP9lZWiBOAB_l-16">
          <mxGeometry y="30" width="200" height="30" as="geometry" />
        </mxCell>
        <mxCell id="a6kdlHemP9lZWiBOAB_l-18" value="widget_type_id" style="text;html=1;strokeColor=none;fillColor=none;align=left;verticalAlign=middle;whiteSpace=wrap;rounded=0;" vertex="1" parent="a6kdlHemP9lZWiBOAB_l-16">
          <mxGeometry y="60" width="200" height="30" as="geometry" />
        </mxCell>
        <mxCell id="a6kdlHemP9lZWiBOAB_l-19" value="widget_conf" style="text;html=1;strokeColor=none;fillColor=none;align=left;verticalAlign=middle;whiteSpace=wrap;rounded=0;" vertex="1" parent="a6kdlHemP9lZWiBOAB_l-16">
          <mxGeometry y="90" width="200" height="30" as="geometry" />
        </mxCell>
        <mxCell id="a6kdlHemP9lZWiBOAB_l-24" value="widget_content" style="text;html=1;strokeColor=none;fillColor=none;align=left;verticalAlign=middle;whiteSpace=wrap;rounded=0;" vertex="1" parent="a6kdlHemP9lZWiBOAB_l-16">
          <mxGeometry y="120" width="200" height="30" as="geometry" />
        </mxCell>
        <mxCell id="a6kdlHemP9lZWiBOAB_l-20" value="WIDGET_TYPES" style="swimlane;whiteSpace=wrap;html=1;" vertex="1" parent="WIyWlLk6GJQsqaUBKTNV-1">
          <mxGeometry x="400" y="-200" width="200" height="160" as="geometry" />
        </mxCell>
        <mxCell id="a6kdlHemP9lZWiBOAB_l-21" value="widget_type_id" style="text;html=1;strokeColor=none;fillColor=none;align=left;verticalAlign=middle;whiteSpace=wrap;rounded=0;" vertex="1" parent="a6kdlHemP9lZWiBOAB_l-20">
          <mxGeometry y="30" width="200" height="30" as="geometry" />
        </mxCell>
        <mxCell id="a6kdlHemP9lZWiBOAB_l-22" value="widget_type_name" style="text;html=1;strokeColor=none;fillColor=none;align=left;verticalAlign=middle;whiteSpace=wrap;rounded=0;" vertex="1" parent="a6kdlHemP9lZWiBOAB_l-20">
          <mxGeometry y="60" width="200" height="30" as="geometry" />
        </mxCell>
        <mxCell id="a6kdlHemP9lZWiBOAB_l-25" value="Phân loại thành phần" style="rounded=0;whiteSpace=wrap;html=1;" vertex="1" parent="a6kdlHemP9lZWiBOAB_l-20">
          <mxGeometry y="140" width="200" height="20" as="geometry" />
        </mxCell>
        <mxCell id="a6kdlHemP9lZWiBOAB_l-29" value="PAGE_STRUCTURE" style="swimlane;whiteSpace=wrap;html=1;" vertex="1" parent="WIyWlLk6GJQsqaUBKTNV-1">
          <mxGeometry x="170" y="-400" width="200" height="150" as="geometry" />
        </mxCell>
        <mxCell id="a6kdlHemP9lZWiBOAB_l-30" value="page_id" style="text;html=1;strokeColor=none;fillColor=none;align=left;verticalAlign=middle;whiteSpace=wrap;rounded=0;" vertex="1" parent="a6kdlHemP9lZWiBOAB_l-29">
          <mxGeometry y="30" width="200" height="30" as="geometry" />
        </mxCell>
        <mxCell id="a6kdlHemP9lZWiBOAB_l-31" value="cpn_id" style="text;html=1;strokeColor=none;fillColor=none;align=left;verticalAlign=middle;whiteSpace=wrap;rounded=0;" vertex="1" parent="a6kdlHemP9lZWiBOAB_l-29">
          <mxGeometry y="60" width="200" height="30" as="geometry" />
        </mxCell>
      </root>
    </mxGraphModel>
  </diagram>
</mxfile>
